<svg width="186" height="92" viewBox="0 0 186 92" fill="none" xmlns="http://www.w3.org/2000/svg">
<rect y="7" width="181" height="85" rx="42.5" fill="#40332B"/>
<rect x="5" width="181" height="85" rx="42.5" fill="#F4F0E4"/>
<path d="M66.087 49.168V45.776H58.919V36.08H73.543V33.168H58.887V29.808H77.639V39.376H63.047V42.384H78.279V45.776H70.343V49.168H81.287V52.592H55.239V49.168H66.087ZM109.005 48.592V52.048H82.989V48.592H109.005ZM85.965 30.64H105.069L104.749 45.904H100.461L100.717 34.096H85.965V30.64ZM134.643 27.952V47.792H130.387V27.952H134.643ZM111.347 36.88C111.347 35.4507 111.667 34.1813 112.307 33.072C112.968 31.9413 113.886 31.0667 115.059 30.448C116.232 29.808 117.566 29.488 119.059 29.488C120.552 29.488 121.875 29.808 123.027 30.448C124.2 31.0667 125.107 31.9413 125.747 33.072C126.408 34.1813 126.739 35.4507 126.739 36.88C126.739 38.3093 126.408 39.5787 125.747 40.688C125.107 41.7973 124.2 42.672 123.027 43.312C121.875 43.9307 120.552 44.24 119.059 44.24C117.566 44.24 116.232 43.9307 115.059 43.312C113.886 42.672 112.968 41.7973 112.307 40.688C111.667 39.5787 111.347 38.3093 111.347 36.88ZM115.475 36.88C115.475 38.0533 115.795 39.0027 116.435 39.728C117.096 40.432 117.971 40.784 119.059 40.784C120.126 40.784 120.979 40.432 121.619 39.728C122.28 39.0027 122.611 38.0533 122.611 36.88C122.611 35.6853 122.28 34.736 121.619 34.032C120.979 33.3067 120.126 32.944 119.059 32.944C117.971 32.944 117.096 33.3067 116.435 34.032C115.795 34.736 115.475 35.6853 115.475 36.88ZM116.403 46.704H120.627V52.848H134.931V56.24H116.403V46.704Z" fill="#41332F"/>
</svg>
