<svg width="83" height="83" viewBox="0 0 83 83" fill="none" xmlns="http://www.w3.org/2000/svg">
<path d="M67.7819 69.8317H15.2185C14.5782 69.8287 13.9609 69.5934 13.482 69.1697C13.0031 68.7461 12.6953 68.1631 12.6163 67.5298L7.99748 26.0298C7.9564 25.6682 7.99212 25.302 8.1023 24.9551C8.21249 24.6082 8.39468 24.2882 8.63703 24.0161C8.87938 23.7439 9.17648 23.5256 9.509 23.3754C9.84153 23.2252 10.202 23.1464 10.5671 23.1442H72.4333C72.7983 23.1464 73.1589 23.2252 73.4914 23.3754C73.8239 23.5256 74.121 23.7439 74.3633 24.0161C74.6057 24.2882 74.7879 24.6082 74.8981 24.9551C75.0083 25.302 75.044 25.6682 75.0029 26.0298L70.3841 67.5298C70.305 68.1631 69.9973 68.7461 69.5184 69.1697C69.0395 69.5934 68.4222 69.8287 67.7819 69.8317Z" stroke="#F4F0E4" stroke-width="6" stroke-linecap="round" stroke-linejoin="round"/>
<path d="M28.731 33.5192V23.2329C28.731 19.8228 30.0973 16.5523 32.5294 14.141C34.9615 11.7297 38.2602 10.375 41.6997 10.375C45.1392 10.375 48.4379 11.7297 50.87 14.141C53.3021 16.5523 54.6685 19.8228 54.6685 23.2329V33.5192" stroke="#F4F0E4" stroke-width="6" stroke-linecap="round" stroke-linejoin="round"/>
</svg>
