<svg width="90" height="90" viewBox="0 0 90 90" fill="none" xmlns="http://www.w3.org/2000/svg">
<path d="M45 78.75C63.6396 78.75 78.75 63.6396 78.75 45C78.75 26.3604 63.6396 11.25 45 11.25C26.3604 11.25 11.25 26.3604 11.25 45C11.25 63.6396 26.3604 78.75 45 78.75Z" stroke="#F4F0E4" stroke-width="6" stroke-linecap="round" stroke-linejoin="round"/>
<path d="M45 56.25C52.7665 56.25 59.0625 49.954 59.0625 42.1875C59.0625 34.421 52.7665 28.125 45 28.125C37.2335 28.125 30.9375 34.421 30.9375 42.1875C30.9375 49.954 37.2335 56.25 45 56.25Z" stroke="#F4F0E4" stroke-width="6" stroke-linecap="round" stroke-linejoin="round"/>
<path d="M22.5 70.1016C24.6161 65.9335 27.845 62.4328 31.8289 59.9875C35.8127 57.5422 40.3959 56.2478 45.0703 56.2478C49.7448 56.2478 54.3279 57.5422 58.3118 59.9875C62.2956 62.4328 65.5245 65.9335 67.6406 70.1016" stroke="#F4F0E4" stroke-width="6" stroke-linecap="round" stroke-linejoin="round"/>
</svg>
