<svg width="393" height="92" viewBox="0 0 393 92" fill="none" xmlns="http://www.w3.org/2000/svg">
<rect y="7" width="392.83" height="85" rx="42.5" fill="#40332B"/>
<rect width="392.83" height="85" rx="42.5" fill="#96D4AD"/>
<path d="M167.38 43.792V47.216H156.372V56.784H152.18V47.216H141.364V43.792H167.38ZM150.772 35.344C151.391 35.0667 151.775 34.832 151.924 34.64C152.073 34.448 152.148 34.1493 152.148 33.744V32.432H144.372V28.976H164.212V32.432H156.436V33.744C156.436 34.1493 156.511 34.448 156.66 34.64C156.809 34.832 157.193 35.0667 157.812 35.344L165.012 38.64L163.412 42.224L156.148 38.928C155.423 38.5867 154.804 38.1813 154.292 37.712C153.78 38.1813 153.161 38.5867 152.436 38.928L145.172 42.224L143.572 38.64L150.772 35.344ZM195.13 42.16V45.488H184.602V50.288H180.346V45.488H169.082V42.16H195.13ZM172.698 29.04H191.418V40.016H172.698V29.04ZM172.954 47.856H177.178V52.88H191.61V56.272H172.954V47.856ZM187.226 36.656V32.368H176.826V36.656H187.226ZM219.456 27.952V39.12H223.552V42.64H219.456V55.792H215.2V27.952H219.456ZM197.12 31.632H203.168V28.432H207.424V31.632H213.472V34.96H197.12V31.632ZM198.112 42.8C198.112 41.456 198.411 40.2613 199.008 39.216C199.627 38.1493 200.48 37.328 201.568 36.752C202.656 36.1547 203.893 35.856 205.28 35.856C206.667 35.856 207.904 36.1547 208.992 36.752C210.101 37.328 210.955 38.1493 211.552 39.216C212.171 40.2613 212.48 41.456 212.48 42.8C212.48 44.144 212.171 45.3387 211.552 46.384C210.955 47.4293 210.101 48.2507 208.992 48.848C207.904 49.424 206.667 49.712 205.28 49.712C203.893 49.712 202.656 49.424 201.568 48.848C200.48 48.2507 199.627 47.4293 199.008 46.384C198.411 45.3387 198.112 44.144 198.112 42.8ZM202.208 42.8C202.208 43.8453 202.485 44.6773 203.04 45.296C203.595 45.9147 204.341 46.224 205.28 46.224C206.219 46.224 206.965 45.9147 207.52 45.296C208.096 44.6773 208.384 43.8453 208.384 42.8C208.384 41.7547 208.096 40.9227 207.52 40.304C206.965 39.664 206.219 39.344 205.28 39.344C204.363 39.344 203.616 39.664 203.04 40.304C202.485 40.9227 202.208 41.7547 202.208 42.8ZM248.582 27.92V55.76H244.326V27.92H248.582ZM225.67 45.104C228.699 44.3573 231.174 43.056 233.094 41.2C235.014 39.344 236.006 36.9333 236.07 33.968H226.47V30.512H240.038V33.968C239.995 36.6987 239.323 39.0987 238.022 41.168C236.742 43.216 235.089 44.8907 233.062 46.192C231.057 47.472 228.891 48.3893 226.566 48.944L225.67 45.104Z" fill="white"/>
</svg>
