<svg width="186" height="92" viewBox="0 0 186 92" fill="none" xmlns="http://www.w3.org/2000/svg">
<rect y="7" width="181" height="85" rx="42.5" fill="#40332B"/>
<rect x="5" width="181" height="85" rx="42.5" fill="#F4F0E4"/>
<path d="M59.572 51.152L41.556 51.472V48.016L48.532 47.888V45.36C47.0173 44.9333 45.8013 44.1227 44.884 42.928C43.9667 41.712 43.508 40.2827 43.508 38.64C43.508 37.296 43.9027 36.0587 44.692 34.928H42.516V31.504H48.756V28.304H52.756V31.504H59.028V34.928H56.82C57.6093 36.0587 58.004 37.296 58.004 38.64C58.004 40.3467 57.524 41.808 56.564 43.024C55.6253 44.24 54.356 45.04 52.756 45.424V47.824L59.572 47.696V51.152ZM47.508 38.64C47.508 39.7067 47.8067 40.5707 48.404 41.232C49.0013 41.8933 49.7907 42.224 50.772 42.224C51.732 42.224 52.5107 41.8933 53.108 41.232C53.7053 40.5707 54.004 39.7067 54.004 38.64C54.004 37.5307 53.7053 36.6453 53.108 35.984C52.5107 35.3227 51.732 34.992 50.772 34.992C49.7907 34.992 49.0013 35.3227 48.404 35.984C47.8067 36.6453 47.508 37.5307 47.508 38.64ZM61.14 27.952H65.364V55.792H61.14V27.952ZM78.33 39.504C76.922 39.504 75.6633 39.2587 74.554 38.768C73.466 38.2773 72.6127 37.5947 71.994 36.72C71.3753 35.8453 71.066 34.8533 71.066 33.744C71.066 32.6347 71.3753 31.6533 71.994 30.8C72.6127 29.9253 73.466 29.2427 74.554 28.752C75.6633 28.2613 76.922 28.016 78.33 28.016C79.738 28.016 80.9967 28.2613 82.106 28.752C83.2153 29.2427 84.0793 29.9253 84.698 30.8C85.3167 31.6533 85.626 32.6347 85.626 33.744C85.626 34.8533 85.3167 35.8453 84.698 36.72C84.0793 37.5947 83.2153 38.2773 82.106 38.768C80.9967 39.2587 79.738 39.504 78.33 39.504ZM69.69 40.848L87.162 40.528V43.984L81.21 44.08V49.008H77.786V52.848H93.562V56.24H73.562V48.176H76.954V44.176L69.69 44.304V40.848ZM75.098 33.744C75.098 34.4693 75.386 35.056 75.962 35.504C76.5593 35.952 77.3487 36.176 78.33 36.176C79.3113 36.176 80.1007 35.9627 80.698 35.536C81.2953 35.088 81.594 34.4907 81.594 33.744C81.594 33.04 81.2953 32.4747 80.698 32.048C80.1007 31.6 79.3113 31.376 78.33 31.376C77.3487 31.376 76.5593 31.6 75.962 32.048C75.386 32.4747 75.098 33.04 75.098 33.744ZM83.706 45.424H89.114V27.92H93.338V50.032H89.114V48.272H83.706V45.424ZM119.424 27.888V38.832H123.392V42.32H119.424V55.728H115.168V27.888H119.424ZM97.28 45.104C99.1573 44.6347 100.885 43.8667 102.464 42.8C104.043 41.7333 105.301 40.4427 106.24 38.928C107.2 37.392 107.68 35.7387 107.68 33.968H98.08V30.512H111.648V33.904V33.968C111.648 36.3573 111.008 38.5973 109.728 40.688C108.448 42.7573 106.773 44.5173 104.704 45.968C102.656 47.3973 100.48 48.3893 98.176 48.944L97.28 45.104ZM148.486 27.952V43.408H144.23V27.952H148.486ZM125.222 36.144C125.222 34.7147 125.542 33.4453 126.182 32.336C126.843 31.2053 127.761 30.3307 128.934 29.712C130.107 29.072 131.441 28.752 132.934 28.752C134.427 28.752 135.75 29.072 136.902 29.712C138.075 30.3307 138.982 31.2053 139.622 32.336C140.283 33.4453 140.614 34.7147 140.614 36.144C140.614 37.5733 140.283 38.8427 139.622 39.952C138.982 41.0613 138.075 41.936 136.902 42.576C135.75 43.1947 134.427 43.504 132.934 43.504C131.441 43.504 130.107 43.1947 128.934 42.576C127.761 41.936 126.843 41.0613 126.182 39.952C125.542 38.8427 125.222 37.5733 125.222 36.144ZM129.35 36.144C129.35 37.3387 129.67 38.288 130.31 38.992C130.971 39.696 131.846 40.048 132.934 40.048C134.001 40.048 134.854 39.696 135.494 38.992C136.155 38.2667 136.486 37.3173 136.486 36.144C136.486 34.9493 136.155 34 135.494 33.296C134.854 32.5707 134.001 32.208 132.934 32.208C131.846 32.208 130.971 32.5707 130.31 33.296C129.67 34 129.35 34.9493 129.35 36.144ZM130.374 44.656H134.566V47.28H144.294V44.656H148.486V56.432H130.374V44.656ZM144.294 53.04V50.512H134.566V53.04H144.294Z" fill="#41332F"/>
</svg>
