<svg xmlns="http://www.w3.org/2000/svg" viewBox="0 0 290.34 86"><defs><style>.cls-1{fill:#b20000;}.cls-2{fill:#d30d0d;}.cls-3{fill:#820000;}.cls-4{font-size:36.51px;fill:#fff;font-family:SUITE-ExtraBold, SUITE;font-weight:800;}</style></defs><title>삭제버튼2</title><g id="레이어_2" data-name="레이어 2"><g id="레이어_1-2" data-name="레이어 1"><path class="cls-1" d="M145.17,82.5c-99,0-134.9-14.45-138.47-18C4.65,62.42,2.85,51.17,3.76,42c1.1-11.17,5.76-19.79,13.47-24.93C35.57,4.86,134,3.6,145.14,3.5c11.22.1,109.64,1.36,128,13.59,7.71,5.14,12.37,13.76,13.48,24.93.9,9.15-.89,20.4-2.94,22.46C280.07,68.05,244.19,82.5,145.17,82.5Z"/><path class="cls-2" d="M145.17,7s108,1,126,13,11,41,10,42-31,17-136,17-135-16-136-17-8-30,10-42,126-13,126-13m0-7h-.06c-.27,0-27.52.27-56.61,2-54.13,3.24-67.71,8.5-73.21,12.17-8.61,5.74-13.8,15.25-15,27.5A63,63,0,0,0,.7,56.78C1.88,64.61,3.35,66.07,4.22,67,6.81,69.54,18.12,74,36.81,77.74c27.57,5.48,64,8.26,108.36,8.26s80.8-2.78,108.37-8.26c18.69-3.71,30-8.2,32.58-10.79.88-.88,2.34-2.34,3.52-10.17a62.5,62.5,0,0,0,.43-15.1c-1.21-12.25-6.41-21.76-15-27.5C269.55,10.51,256,5.25,201.84,2c-29.09-1.74-56.33-2-56.6-2Z"/><path class="cls-3" d="M46.71,12.87,16.49,65.22a155.05,155.05,0,0,0,20,5.31L71.3,10.24C62.65,11,54.24,11.82,46.71,12.87Z"/><path class="cls-3" d="M99.27,8.44,61.11,74.52c6.52.82,13.75,1.58,21.79,2.23l40-69.26C115.94,7.71,107.85,8,99.27,8.44Z"/><path class="cls-3" d="M150.06,7.07,108.94,78.3q10.65.44,22.71.61L172.78,7.67C163,7.33,154.9,7.15,150.06,7.07Z"/><path class="cls-3" d="M199,8.86,158.58,78.91q12.49-.18,23.44-.64l39.17-67.85C213.88,9.79,206.36,9.28,199,8.86Z"/><path class="cls-3" d="M246.47,13.28,210,76.54c9.27-.79,17.45-1.72,24.64-2.73l32.28-55.9C262,16.08,254.89,14.55,246.47,13.28Z"/><path class="cls-3" d="M282.38,37.7,264.91,67.94c11.3-3,15.88-5.56,16.26-5.94C281.81,61.36,284.86,49.41,282.38,37.7Z"/><text class="cls-4" transform="translate(113.66 56.34)">삭제</text></g></g></svg>