<svg width="202" height="92" viewBox="0 0 202 92" fill="none" xmlns="http://www.w3.org/2000/svg">
<rect x="5" y="7" width="181" height="85" rx="42.5" fill="#40332B"/>
<rect x="10" width="181" height="85" rx="42.5" fill="#00A971"/>
<path d="M57.9809 29.58V35.58H61.5509V38.82H57.9809V44.91H54.0209V29.58H57.9809ZM41.9009 38.22C42.3609 37.88 42.6309 37.64 42.7109 37.5C42.8109 37.34 42.8609 37.06 42.8609 36.66V35.28H37.5509V32.04H42.9509V29.55H46.6709V32.04H51.9809V35.28H46.6409V36.66C46.6409 37.06 46.6809 37.34 46.7609 37.5C46.8609 37.64 47.1409 37.88 47.6009 38.22L52.6409 41.85L50.4809 44.85L45.4409 41.22L44.7509 40.68L44.0609 41.22L39.0809 44.85L36.9209 41.85L41.9009 38.22ZM46.8809 50.58C47.3009 50.36 47.5809 50.2 47.7209 50.1C47.8809 50 47.9809 49.89 48.0209 49.77C48.0609 49.65 48.0809 49.45 48.0809 49.17V48.9H41.4209V45.9H58.2209V48.9H51.5609V49.17C51.5609 49.45 51.5809 49.65 51.6209 49.77C51.6609 49.89 51.7509 50 51.8909 50.1C52.0309 50.2 52.3009 50.36 52.7009 50.58L58.8509 53.58L57.3509 56.7L51.1409 53.64C50.6809 53.4 50.2409 53.11 49.8209 52.77C49.3809 53.11 48.9209 53.4 48.4409 53.64L42.2609 56.7L40.7609 53.58L46.8809 50.58ZM83.9366 29.58V39.72H87.8066V42.99H83.9366V55.68H79.9766V29.58H83.9366ZM62.6966 39.69C62.6966 38.17 63.0166 36.81 63.6566 35.61C64.2966 34.41 65.1866 33.48 66.3266 32.82C67.4866 32.14 68.7966 31.8 70.2566 31.8C71.7166 31.8 73.0166 32.14 74.1566 32.82C75.3166 33.48 76.2166 34.41 76.8566 35.61C77.4966 36.81 77.8166 38.17 77.8166 39.69C77.8166 41.21 77.4966 42.56 76.8566 43.74C76.2166 44.92 75.3166 45.85 74.1566 46.53C73.0166 47.19 71.7166 47.52 70.2566 47.52C68.7966 47.52 67.4866 47.19 66.3266 46.53C65.1866 45.85 64.2966 44.92 63.6566 43.74C63.0166 42.56 62.6966 41.21 62.6966 39.69ZM66.6266 39.69C66.6266 41.05 66.9566 42.14 67.6166 42.96C68.2766 43.78 69.1566 44.19 70.2566 44.19C71.3566 44.19 72.2366 43.78 72.8966 42.96C73.5566 42.14 73.8866 41.05 73.8866 39.69C73.8866 38.31 73.5566 37.21 72.8966 36.39C72.2366 35.55 71.3566 35.13 70.2566 35.13C69.1566 35.13 68.2766 35.55 67.6166 36.39C66.9566 37.21 66.6266 38.31 66.6266 39.69ZM98.9722 49.32V46.62C97.0322 46.24 95.4722 45.36 94.2922 43.98C93.1122 42.58 92.5222 40.89 92.5222 38.91C92.5222 37.39 92.8822 36.03 93.6022 34.83C94.3222 33.63 95.3122 32.69 96.5722 32.01C97.8522 31.33 99.3022 30.99 100.922 30.99C102.562 30.99 104.032 31.33 105.332 32.01C106.632 32.69 107.642 33.63 108.362 34.83C109.082 36.03 109.442 37.39 109.442 38.91C109.442 40.87 108.852 42.55 107.672 43.95C106.492 45.33 104.922 46.22 102.962 46.62V49.32H113.222V52.53H88.8022V49.32H98.9722ZM96.4822 38.91C96.4822 40.25 96.8822 41.36 97.6822 42.24C98.5022 43.1 99.5822 43.53 100.922 43.53C102.302 43.53 103.402 43.1 104.222 42.24C105.062 41.36 105.482 40.25 105.482 38.91C105.482 37.55 105.062 36.44 104.222 35.58C103.402 34.7 102.302 34.26 100.922 34.26C99.5822 34.26 98.5022 34.7 97.6822 35.58C96.8822 36.44 96.4822 37.55 96.4822 38.91ZM122.528 30.51V37.05H135.968V40.2H118.568V30.51H122.528ZM114.818 42.69H139.238V45.84H114.818V42.69ZM118.598 47.97H122.558V52.86H135.848V56.01H118.598V47.97ZM159.253 48.72V47.22H146.113V44.19H163.243V51.57H150.133V53.25H163.813V56.31H146.173V48.72H159.253ZM141.523 39.93C144.103 39.49 146.243 38.71 147.943 37.59C149.643 36.47 150.543 35.17 150.643 33.69H142.153V30.45H154.363V33.69C154.303 35.39 153.683 36.93 152.503 38.31C151.343 39.69 149.843 40.83 148.003 41.73C146.163 42.63 144.203 43.25 142.123 43.59L141.523 39.93ZM159.253 29.55H163.243V43.11H159.253V29.55Z" fill="#F3EDCD"/>
</svg>
