<svg width="39" height="39" viewBox="0 0 39 39" fill="none" xmlns="http://www.w3.org/2000/svg">
<g clip-path="url(#clip0_150_21)">
<path d="M34.1251 6.01758C34.1039 5.72157 33.9767 5.44312 33.7668 5.23327C33.557 5.02342 33.2785 4.89622 32.9825 4.875C21.3587 4.18945 12.0505 7.69336 8.07433 14.2594C6.69808 16.5047 6.01941 19.108 6.12433 21.7395C6.21574 24.1617 6.91652 26.6297 8.22668 29.052L23.5068 13.7566C23.7436 13.5623 24.0442 13.463 24.3501 13.478C24.6561 13.493 24.9456 13.6213 25.1622 13.8379C25.3788 14.0546 25.5071 14.344 25.5221 14.65C25.5371 14.9559 25.4378 15.2566 25.2435 15.4934L9.94816 30.7734C12.3704 32.0836 14.8384 32.7844 17.2607 32.8758H17.7634C20.2251 32.8864 22.6412 32.2112 24.7407 30.9258C31.3068 26.9496 34.8107 17.6414 34.1251 6.01758Z" fill="#569F4E"/>
<path d="M8.69885 29.8746C8.53127 29.6004 8.37893 29.3262 8.22658 29.052L5.22541 32.0379C4.99655 32.269 4.86816 32.581 4.86816 32.9062C4.86816 33.2315 4.99655 33.5435 5.22541 33.7746C5.45836 33.9999 5.76973 34.1258 6.09377 34.1258C6.41781 34.1258 6.72918 33.9999 6.96213 33.7746L9.94807 30.7734L9.12541 30.3012C8.95425 30.1913 8.80876 30.0458 8.69885 29.8746Z" fill="#569F4E"/>
</g>
<defs>
<clipPath id="clip0_150_21">
<rect width="39" height="39" fill="white"/>
</clipPath>
</defs>
</svg>
