<svg width="202" height="92" viewBox="0 0 202 92" fill="none" xmlns="http://www.w3.org/2000/svg">
<rect x="5" y="7" width="181" height="85" rx="42.5" fill="#40332B"/>
<rect x="10" width="181" height="85" rx="42.5" fill="#00A971"/>
<path d="M87.1466 42.39V45.54H76.8866V47.79H83.8166V56.58H79.8566V50.91H66.1466V47.79H72.9266V45.54H62.7566V42.39H87.1466ZM66.2666 30.27H70.1666V32.61H79.7366V30.27H83.6666V40.71H66.2666V30.27ZM79.7366 37.59V35.55H70.1666V37.59H79.7366ZM102.542 32.1V48.93H89.6122V32.1H102.542ZM98.6422 45.78V35.22H93.5122V45.78H98.6422ZM105.992 29.58H109.952V39.72H113.822V42.99H109.952V55.68H105.992V29.58ZM139.208 49.26V52.53H114.818V49.26H139.208ZM117.338 38.46H131.468L131.528 35.34H117.338V32.1H135.608L135.308 46.77H131.288L131.378 41.73H117.338V38.46Z" fill="#F3EDCD"/>
</svg>
