<svg width="130" height="130" viewBox="0 0 130 130" fill="none" xmlns="http://www.w3.org/2000/svg">
<path d="M87.8194 127.785C87.8194 127.785 50.1825 136.646 0 118.923C0 118.923 12.5456 110.061 12.5456 79.0457C12.5456 48.03 46.0007 -14.0014 96.1832 34.7376C96.1832 34.7376 104.547 17.0143 104.547 3.72188C104.547 -9.57055 121.274 17.0143 121.274 17.0143L100.365 43.5992C100.365 43.5992 133.82 43.5992 129.638 83.4765C129.638 83.4765 121.274 105.631 108.729 114.492C108.729 114.492 117.093 87.9073 100.365 87.9073C83.6376 87.9073 62.7282 114.492 87.8194 127.785Z" fill="#437E3E"/>
</svg>
