<svg width="186" height="92" viewBox="0 0 186 92" fill="none" xmlns="http://www.w3.org/2000/svg">
<rect y="7" width="181" height="85" rx="42.5" fill="#40332B"/>
<rect x="5" width="181" height="85" rx="42.5" fill="#F4F0E4"/>
<path d="M60.672 41.464H54.368C52.384 45.432 48.4267 48.2587 42.496 49.944L41.408 46.104C43.264 45.5707 44.8853 44.9413 46.272 44.216C47.68 43.4693 48.832 42.552 49.728 41.464H42.08V37.976H51.52C51.776 36.952 51.904 35.9493 51.904 34.968H42.08V31.512H55.872V34.776V34.968C55.872 35.9493 55.7653 36.9733 55.552 38.04H60.672V28.952H64.928V56.792H60.672V41.464ZM94.662 45.496V48.856H88.87V57.816H84.614V48.856H78.726V57.816H74.502V48.856H68.614V45.496H94.662ZM72.294 30.296H90.79V42.584H72.294V30.296ZM86.662 39.256V33.656H76.486V39.256H86.662ZM120.428 28.92V56.76H116.204V28.92H120.428ZM97.932 31.352H102.188V46.392L112.62 46.168V49.624L97.932 49.944V31.352ZM148.082 28.952V56.792H143.858V28.952H148.082ZM125.842 31.512H139.57V35H130.066V38.936H138.834V42.424H130.066V46.392L140.562 46.168V49.624L125.842 49.944V31.512Z" fill="#41332F"/>
</svg>
