<svg width="545" height="92" viewBox="0 0 545 92" fill="none" xmlns="http://www.w3.org/2000/svg">
<rect y="7" width="545" height="85" rx="42.5" fill="#40332B"/>
<rect width="545" height="85" rx="42.5" fill="#F4F0E4"/>
<path d="M239.848 27.888V38.832H243.816V42.32H239.848V55.728H235.592V27.888H239.848ZM217.704 45.104C219.582 44.6347 221.31 43.8667 222.888 42.8C224.467 41.7333 225.726 40.4427 226.664 38.928C227.624 37.392 228.104 35.7387 228.104 33.968H218.504V30.512H232.072V33.904V33.968C232.072 36.3573 231.432 38.5973 230.152 40.688C228.872 42.7573 227.198 44.5173 225.128 45.968C223.08 47.3973 220.904 48.3893 218.6 48.944L217.704 45.104ZM268.91 27.952V43.408H264.654V27.952H268.91ZM245.646 36.144C245.646 34.7147 245.966 33.4453 246.606 32.336C247.268 31.2053 248.185 30.3307 249.358 29.712C250.532 29.072 251.865 28.752 253.358 28.752C254.852 28.752 256.174 29.072 257.326 29.712C258.5 30.3307 259.406 31.2053 260.046 32.336C260.708 33.4453 261.038 34.7147 261.038 36.144C261.038 37.5733 260.708 38.8427 260.046 39.952C259.406 41.0613 258.5 41.936 257.326 42.576C256.174 43.1947 254.852 43.504 253.358 43.504C251.865 43.504 250.532 43.1947 249.358 42.576C248.185 41.936 247.268 41.0613 246.606 39.952C245.966 38.8427 245.646 37.5733 245.646 36.144ZM249.774 36.144C249.774 37.3387 250.094 38.288 250.734 38.992C251.396 39.696 252.27 40.048 253.358 40.048C254.425 40.048 255.278 39.696 255.918 38.992C256.58 38.2667 256.91 37.3173 256.91 36.144C256.91 34.9493 256.58 34 255.918 33.296C255.278 32.5707 254.425 32.208 253.358 32.208C252.27 32.208 251.396 32.5707 250.734 33.296C250.094 34 249.774 34.9493 249.774 36.144ZM250.798 44.656H254.99V47.28H264.718V44.656H268.91V56.432H250.798V44.656ZM264.718 53.04V50.512H254.99V53.04H264.718ZM281.492 47.792V52.848H296.404V56.24H277.268V47.792H281.492ZM272.884 42.48L279.252 42.352V40.336C277.652 39.9947 276.383 39.312 275.444 38.288C274.506 37.2427 274.036 36.0053 274.036 34.576C274.036 33.424 274.346 32.3893 274.964 31.472C275.583 30.5547 276.436 29.84 277.524 29.328C278.634 28.816 279.903 28.56 281.332 28.56C282.74 28.56 283.999 28.816 285.108 29.328C286.218 29.84 287.082 30.5547 287.7 31.472C288.34 32.3893 288.66 33.424 288.66 34.576C288.66 36.0053 288.191 37.232 287.252 38.256C286.314 39.28 285.055 39.9627 283.476 40.304V42.288L289.716 42.16V45.616L272.884 45.936V42.48ZM278.132 34.576C278.132 35.3867 278.42 36.0373 278.996 36.528C279.572 36.9973 280.351 37.232 281.332 37.232C282.314 37.232 283.103 36.9867 283.7 36.496C284.298 36.0053 284.596 35.3653 284.596 34.576C284.596 33.7653 284.298 33.1147 283.7 32.624C283.103 32.1333 282.314 31.888 281.332 31.888C280.351 31.888 279.572 32.1333 278.996 32.624C278.42 33.1147 278.132 33.7653 278.132 34.576ZM291.412 27.952H295.636V36.912H299.22V40.4H295.636V49.072H291.412V27.952ZM307.162 49.488V45.68H304.218V36.016H319.29V33.168H304.186V29.808H322.938V39.312H308.346V42.288H323.578V45.68H320.218V49.488H326.586V52.912H300.538V49.488H307.162ZM316.09 49.488V45.68H311.322V49.488H316.09Z" fill="#41332F"/>
</svg>
