<svg width="182" height="92" viewBox="0 0 182 92" fill="none" xmlns="http://www.w3.org/2000/svg">
<rect y="7" width="181" height="85" rx="42.5" fill="#40332B"/>
<rect x="1" width="181" height="85" rx="42.5" fill="#F4F0E4"/>
<path d="M61.087 49.168V45.776H53.919V36.08H68.543V33.168H53.887V29.808H72.639V39.376H58.047V42.384H73.279V45.776H65.343V49.168H76.287V52.592H50.239V49.168H61.087ZM104.005 48.592V52.048H77.989V48.592H104.005ZM80.965 30.64H100.069L99.749 45.904H95.461L95.717 34.096H80.965V30.64ZM129.643 27.952V47.792H125.387V27.952H129.643ZM106.347 36.88C106.347 35.4507 106.667 34.1813 107.307 33.072C107.968 31.9413 108.886 31.0667 110.059 30.448C111.232 29.808 112.566 29.488 114.059 29.488C115.552 29.488 116.875 29.808 118.027 30.448C119.2 31.0667 120.107 31.9413 120.747 33.072C121.408 34.1813 121.739 35.4507 121.739 36.88C121.739 38.3093 121.408 39.5787 120.747 40.688C120.107 41.7973 119.2 42.672 118.027 43.312C116.875 43.9307 115.552 44.24 114.059 44.24C112.566 44.24 111.232 43.9307 110.059 43.312C108.886 42.672 107.968 41.7973 107.307 40.688C106.667 39.5787 106.347 38.3093 106.347 36.88ZM110.475 36.88C110.475 38.0533 110.795 39.0027 111.435 39.728C112.096 40.432 112.971 40.784 114.059 40.784C115.126 40.784 115.979 40.432 116.619 39.728C117.28 39.0027 117.611 38.0533 117.611 36.88C117.611 35.6853 117.28 34.736 116.619 34.032C115.979 33.3067 115.126 32.944 114.059 32.944C112.971 32.944 112.096 33.3067 111.435 34.032C110.795 34.736 110.475 35.6853 110.475 36.88ZM111.403 46.704H115.627V52.848H129.931V56.24H111.403V46.704Z" fill="#41332F"/>
</svg>
