<svg width="184" height="92" viewBox="0 0 184 92" fill="none" xmlns="http://www.w3.org/2000/svg">
<rect y="7" width="184" height="85" rx="42.5" fill="#40332B"/>
<rect width="184" height="85" rx="42.5" fill="#F4F0E4"/>
<path d="M65.7198 30.736H77.1118V38.352H79.7358V28.4H83.6718V54.48H79.7358V41.776H77.1118V48.528H65.7198V30.736ZM73.2078 45.2V34.064H69.6558V45.2H73.2078ZM85.5918 27.92H89.6238V55.76H85.5918V27.92ZM116.574 27.952V47.792H112.318V27.952H116.574ZM93.2778 36.88C93.2778 35.4507 93.5978 34.1813 94.2378 33.072C94.8992 31.9413 95.8165 31.0667 96.9898 30.448C98.1632 29.808 99.4965 29.488 100.99 29.488C102.483 29.488 103.806 29.808 104.958 30.448C106.131 31.0667 107.038 31.9413 107.678 33.072C108.339 34.1813 108.67 35.4507 108.67 36.88C108.67 38.3093 108.339 39.5787 107.678 40.688C107.038 41.7973 106.131 42.672 104.958 43.312C103.806 43.9307 102.483 44.24 100.99 44.24C99.4965 44.24 98.1632 43.9307 96.9898 43.312C95.8165 42.672 94.8992 41.7973 94.2378 40.688C93.5978 39.5787 93.2778 38.3093 93.2778 36.88ZM97.4058 36.88C97.4058 38.0533 97.7258 39.0027 98.3658 39.728C99.0272 40.432 99.9018 40.784 100.99 40.784C102.057 40.784 102.91 40.432 103.55 39.728C104.211 39.0027 104.542 38.0533 104.542 36.88C104.542 35.6853 104.211 34.736 103.55 34.032C102.91 33.3067 102.057 32.944 100.99 32.944C99.9018 32.944 99.0272 33.3067 98.3658 34.032C97.7258 34.736 97.4058 35.6853 97.4058 36.88ZM98.3338 46.704H102.558V52.848H116.862V56.24H98.3338V46.704Z" fill="#41332F"/>
</svg>
