<svg width="182" height="92" viewBox="0 0 182 92" fill="none" xmlns="http://www.w3.org/2000/svg">
<rect y="7" width="181" height="85" rx="42.5" fill="#40332B"/>
<rect x="1" width="181" height="85" rx="42.5" fill="#F4F0E4"/>
<path d="M62.38 43.792V47.216H51.372V56.784H47.18V47.216H36.364V43.792H62.38ZM45.772 35.344C46.3907 35.0667 46.7747 34.832 46.924 34.64C47.0733 34.448 47.148 34.1493 47.148 33.744V32.432H39.372V28.976H59.212V32.432H51.436V33.744C51.436 34.1493 51.5107 34.448 51.66 34.64C51.8093 34.832 52.1933 35.0667 52.812 35.344L60.012 38.64L58.412 42.224L51.148 38.928C50.4227 38.5867 49.804 38.1813 49.292 37.712C48.78 38.1813 48.1613 38.5867 47.436 38.928L40.172 42.224L38.572 38.64L45.772 35.344ZM74.93 48.944V43.536H79.154V48.944H90.162V52.4H64.114V48.944H74.93ZM73.266 36.976C73.8207 36.592 74.2047 36.304 74.418 36.112C74.6527 35.8987 74.7913 35.7067 74.834 35.536C74.898 35.3653 74.93 35.0987 74.93 34.736V29.776H79.314V34.736C79.314 35.0987 79.3353 35.376 79.378 35.568C79.442 35.7387 79.5807 35.9307 79.794 36.144C80.0287 36.336 80.434 36.6133 81.01 36.976L88.53 41.84L86.354 45.168L78.834 40.24C78.194 39.8347 77.6287 39.3867 77.138 38.896C76.7113 39.3227 76.146 39.7707 75.442 40.24L67.922 45.168L65.746 41.84L73.266 36.976ZM97.784 45.168H115.928V56.432H97.784V45.168ZM92.248 40.272C94.1253 39.9307 95.8213 39.3973 97.336 38.672C98.8507 37.9467 100.056 37.072 100.952 36.048C101.848 35.0027 102.317 33.872 102.36 32.656H92.952V29.2H106.328V32.656C106.285 34.5973 105.624 36.368 104.344 37.968C103.085 39.568 101.443 40.9013 99.416 41.968C97.3893 43.0347 95.2347 43.7707 92.952 44.176L92.248 40.272ZM111.768 53.072V48.496H101.944V53.072H111.768ZM106.808 34.704H111.672V27.92H115.928V43.984H111.672V38.16H106.808V34.704ZM144.126 27.952V45.424H140.094V38.32H137.95V45.264H133.982V28.4H137.95V34.896H140.094V27.952H144.126ZM123.678 36.688C124.062 36.24 124.307 35.856 124.414 35.536C124.521 35.216 124.574 34.768 124.574 34.192V29.008H128.734V34.192C128.734 34.768 128.787 35.216 128.894 35.536C129.001 35.8347 129.267 36.2187 129.694 36.688L133.95 41.552L131.006 44.176L126.75 39.312C126.707 39.2693 126.686 39.248 126.686 39.248C126.686 39.248 126.665 39.2693 126.622 39.312L122.334 44.176L119.39 41.552L123.678 36.688ZM125.214 46.672H144.126V56.752H139.87V50H125.214V46.672Z" fill="#41332F"/>
</svg>
