<svg width="182" height="92" viewBox="0 0 182 92" fill="none" xmlns="http://www.w3.org/2000/svg">
<rect y="7" width="181" height="85" rx="42.5" fill="#40332B"/>
<rect x="1" width="181" height="85" rx="42.5" fill="#F4F0E4"/>
<path d="M54.572 51.152L36.556 51.472V48.016L43.532 47.888V45.36C42.0173 44.9333 40.8013 44.1227 39.884 42.928C38.9667 41.712 38.508 40.2827 38.508 38.64C38.508 37.296 38.9027 36.0587 39.692 34.928H37.516V31.504H43.756V28.304H47.756V31.504H54.028V34.928H51.82C52.6093 36.0587 53.004 37.296 53.004 38.64C53.004 40.3467 52.524 41.808 51.564 43.024C50.6253 44.24 49.356 45.04 47.756 45.424V47.824L54.572 47.696V51.152ZM42.508 38.64C42.508 39.7067 42.8067 40.5707 43.404 41.232C44.0013 41.8933 44.7907 42.224 45.772 42.224C46.732 42.224 47.5107 41.8933 48.108 41.232C48.7053 40.5707 49.004 39.7067 49.004 38.64C49.004 37.5307 48.7053 36.6453 48.108 35.984C47.5107 35.3227 46.732 34.992 45.772 34.992C44.7907 34.992 44.0013 35.3227 43.404 35.984C42.8067 36.6453 42.508 37.5307 42.508 38.64ZM56.14 27.952H60.364V55.792H56.14V27.952ZM73.33 39.504C71.922 39.504 70.6633 39.2587 69.554 38.768C68.466 38.2773 67.6127 37.5947 66.994 36.72C66.3753 35.8453 66.066 34.8533 66.066 33.744C66.066 32.6347 66.3753 31.6533 66.994 30.8C67.6127 29.9253 68.466 29.2427 69.554 28.752C70.6633 28.2613 71.922 28.016 73.33 28.016C74.738 28.016 75.9967 28.2613 77.106 28.752C78.2153 29.2427 79.0793 29.9253 79.698 30.8C80.3167 31.6533 80.626 32.6347 80.626 33.744C80.626 34.8533 80.3167 35.8453 79.698 36.72C79.0793 37.5947 78.2153 38.2773 77.106 38.768C75.9967 39.2587 74.738 39.504 73.33 39.504ZM64.69 40.848L82.162 40.528V43.984L76.21 44.08V49.008H72.786V52.848H88.562V56.24H68.562V48.176H71.954V44.176L64.69 44.304V40.848ZM70.098 33.744C70.098 34.4693 70.386 35.056 70.962 35.504C71.5593 35.952 72.3487 36.176 73.33 36.176C74.3113 36.176 75.1007 35.9627 75.698 35.536C76.2953 35.088 76.594 34.4907 76.594 33.744C76.594 33.04 76.2953 32.4747 75.698 32.048C75.1007 31.6 74.3113 31.376 73.33 31.376C72.3487 31.376 71.5593 31.6 70.962 32.048C70.386 32.4747 70.098 33.04 70.098 33.744ZM78.706 45.424H84.114V27.92H88.338V50.032H84.114V48.272H78.706V45.424ZM114.424 27.888V38.832H118.392V42.32H114.424V55.728H110.168V27.888H114.424ZM92.28 45.104C94.1573 44.6347 95.8853 43.8667 97.464 42.8C99.0427 41.7333 100.301 40.4427 101.24 38.928C102.2 37.392 102.68 35.7387 102.68 33.968H93.08V30.512H106.648V33.904V33.968C106.648 36.3573 106.008 38.5973 104.728 40.688C103.448 42.7573 101.773 44.5173 99.704 45.968C97.656 47.3973 95.48 48.3893 93.176 48.944L92.28 45.104ZM143.486 27.952V43.408H139.23V27.952H143.486ZM120.222 36.144C120.222 34.7147 120.542 33.4453 121.182 32.336C121.843 31.2053 122.761 30.3307 123.934 29.712C125.107 29.072 126.441 28.752 127.934 28.752C129.427 28.752 130.75 29.072 131.902 29.712C133.075 30.3307 133.982 31.2053 134.622 32.336C135.283 33.4453 135.614 34.7147 135.614 36.144C135.614 37.5733 135.283 38.8427 134.622 39.952C133.982 41.0613 133.075 41.936 131.902 42.576C130.75 43.1947 129.427 43.504 127.934 43.504C126.441 43.504 125.107 43.1947 123.934 42.576C122.761 41.936 121.843 41.0613 121.182 39.952C120.542 38.8427 120.222 37.5733 120.222 36.144ZM124.35 36.144C124.35 37.3387 124.67 38.288 125.31 38.992C125.971 39.696 126.846 40.048 127.934 40.048C129.001 40.048 129.854 39.696 130.494 38.992C131.155 38.2667 131.486 37.3173 131.486 36.144C131.486 34.9493 131.155 34 130.494 33.296C129.854 32.5707 129.001 32.208 127.934 32.208C126.846 32.208 125.971 32.5707 125.31 33.296C124.67 34 124.35 34.9493 124.35 36.144ZM125.374 44.656H129.566V47.28H139.294V44.656H143.486V56.432H125.374V44.656ZM139.294 53.04V50.512H129.566V53.04H139.294Z" fill="#41332F"/>
</svg>
